<svg id="DECOUPE_-_FINALE" xmlns="http://www.w3.org/2000/svg" width="34.002" height="32.463" viewBox="0 0 34.002 32.463">
  <path id="Tracé_1732" data-name="Tracé 1732" d="M20.737,26.525h0a5.12,5.12,0,0,0-1.055.152,4.74,4.74,0,0,0-2.942,2.066A14.462,14.462,0,1,1,28.672,11.766l-7.935,1.286V26.525Zm-6.275-6.7h0a5.368,5.368,0,1,0-5.368-5.368,5.369,5.369,0,0,0,5.368,5.368Zm0-9.461h0a4.092,4.092,0,1,1-4.093,4.092,4.1,4.1,0,0,1,4.093-4.092Zm0,7.017h0a2.924,2.924,0,1,0-2.921-2.924,2.928,2.928,0,0,0,2.921,2.924ZM34,12.169,22.483,14.038V27.883a3.569,3.569,0,0,0-2.058-.063c-1.635.408-2.7,1.753-2.389,3.007.184,1.163,1.893,1.935,3.521,1.526A2.956,2.956,0,0,0,24.005,29.8l.039-11.7,8.438-1.54v9.4a3.663,3.663,0,0,0-2.092-.072c-1.652.414-2.732,1.771-2.414,3.04s1.909,1.955,3.56,1.545A2.9,2.9,0,0,0,34,27.78V12.169Z" transform="translate(0 0)" fill="#2c2c2c"/>
</svg>
