<svg id="disk" xmlns="http://www.w3.org/2000/svg" width="38.025" height="38.025" viewBox="0 0 38.025 38.025">
  <path id="Tracé_9425" data-name="Tracé 9425" d="M.864,0A.864.864,0,1,1,0,.864.864.864,0,0,1,.864,0Z" transform="translate(18.148 32.84)" fill="#b8b8ff"/>
  <path id="Tracé_9424" data-name="Tracé 9424" d="M.864,0A.864.864,0,1,1,0,.864.864.864,0,0,1,.864,0Z" transform="translate(18.148 29.383)" fill="#b8b8ff"/>
  <path id="Tracé_9415" data-name="Tracé 9415" d="M21.457,18a3.457,3.457,0,1,0,3.457,3.457A3.46,3.46,0,0,0,21.457,18Zm0,5.185a1.728,1.728,0,1,1,1.728-1.728A1.73,1.73,0,0,1,21.457,23.185Z" transform="translate(-2.444 -2.444)" fill="#b8b8ff"/>
  <path id="Tracé_9416" data-name="Tracé 9416" d="M19.013,0A19.013,19.013,0,1,0,38.025,19.013,19.034,19.034,0,0,0,19.013,0Zm0,36.3A17.284,17.284,0,1,1,36.3,19.013,17.3,17.3,0,0,1,19.013,36.3Z" fill="#b8b8ff"/>
  <path id="Tracé_9417" data-name="Tracé 9417" d="M20.914,14a6.914,6.914,0,1,0,6.914,6.914A6.922,6.922,0,0,0,20.914,14Zm0,12.1A5.185,5.185,0,1,1,26.1,20.914,5.19,5.19,0,0,1,20.914,26.1Z" transform="translate(-1.901 -1.901)" fill="#b8b8ff"/>
  <path id="Tracé_9418" data-name="Tracé 9418" d="M16.98,36.942a13.8,13.8,0,0,1-6.506-3.649.864.864,0,1,0-1.22,1.224,15.516,15.516,0,0,0,7.322,4.1.864.864,0,1,0,.4-1.68Z" transform="translate(-1.222 -4.487)" fill="#b8b8ff"/>
  <path id="Tracé_9419" data-name="Tracé 9419" d="M17.457,33.011a10.435,10.435,0,0,1-3.994-2.39.864.864,0,0,0-1.2,1.247,12.172,12.172,0,0,0,4.662,2.787.864.864,0,1,0,.53-1.645Z" transform="translate(-1.63 -4.125)" fill="#b8b8ff"/>
  <path id="Tracé_9423" data-name="Tracé 9423" d="M.864,0A.864.864,0,1,1,0,.864.864.864,0,0,1,.864,0Z" transform="translate(18.148 3.457)" fill="#b8b8ff"/>
  <path id="Tracé_9422" data-name="Tracé 9422" d="M.864,0A.864.864,0,1,1,0,.864.864.864,0,0,1,.864,0Z" transform="translate(18.148 6.914)" fill="#b8b8ff"/>
  <path id="Tracé_9420" data-name="Tracé 9420" d="M26.066,4.5a.865.865,0,0,0-.405,1.681,13.8,13.8,0,0,1,6.506,3.649A.864.864,0,0,0,33.387,8.6,15.518,15.518,0,0,0,26.066,4.5Z" transform="translate(-3.395 -0.607)" fill="#b8b8ff"/>
  <path id="Tracé_9421" data-name="Tracé 9421" d="M26.121,8.666a.864.864,0,1,0-.53,1.645,10.435,10.435,0,0,1,3.994,2.39.865.865,0,0,0,1.2-1.248A12.157,12.157,0,0,0,26.121,8.666Z" transform="translate(-3.394 -1.171)" fill="#b8b8ff"/>
</svg>
