<svg xmlns="http://www.w3.org/2000/svg" width="23.833" height="20.588" viewBox="0 0 23.833 20.588">
  <path id="Eléments_d_accompagnement" data-name="Eléments d&apos;accompagnement" d="M21.562-3083.868H15.728a.877.877,0,0,1-.628-.266l-1.82-1.94a2.3,2.3,0,0,0-1.643-.668H7.671a2.287,2.287,0,0,0-2.271,2.3v.106H4.971a2.287,2.287,0,0,0-2.271,2.3v.106H2.271a2.287,2.287,0,0,0-2.271,2.3v11.185a2.287,2.287,0,0,0,2.271,2.3h13.9a2.287,2.287,0,0,0,2.261-2.3v-.1h.439a2.287,2.287,0,0,0,2.261-2.3v-.1h.439a2.287,2.287,0,0,0,2.261-2.3v-8.3A2.287,2.287,0,0,0,21.562-3083.868Zm-5.393,16.309H2.271a.889.889,0,0,1-.882-.892v-11.186a.89.89,0,0,1,.882-.893H6.278a.885.885,0,0,1,.511.163.763.763,0,0,1,.1.082l1.811,1.931a2.269,2.269,0,0,0,1.631.7h5.834a.889.889,0,0,1,.882.892v8.308h0A.888.888,0,0,1,16.169-3067.559Zm2.7-2.4h-.436v-6.8a2.287,2.287,0,0,0-2.271-2.3H10.328a.876.876,0,0,1-.628-.266l-1.82-1.94a2.26,2.26,0,0,0-1.09-.605,2.346,2.346,0,0,0-.552-.062H4.089v-.106a.89.89,0,0,1,.882-.893H8.978a.871.871,0,0,1,.608.245l1.811,1.931a2.269,2.269,0,0,0,1.631.7h5.834a.888.888,0,0,1,.882.892v8.308h0A.888.888,0,0,1,18.869-3069.963Zm2.7-2.4h-.436v-6.8a2.287,2.287,0,0,0-2.271-2.3H13.028a.876.876,0,0,1-.628-.266l-1.82-1.94a2.292,2.292,0,0,0-1.643-.668H6.789v-.106a.89.89,0,0,1,.882-.893h4.007a.871.871,0,0,1,.608.245l1.811,1.931a2.269,2.269,0,0,0,1.631.7h5.834a.888.888,0,0,1,.882.892v8.308h0A.888.888,0,0,1,21.569-3072.367Z" transform="translate(0 3086.742)" fill="#2c2c2c"/>
</svg>
