<svg xmlns="http://www.w3.org/2000/svg" xmlns:xlink="http://www.w3.org/1999/xlink" width="65" height="65" viewBox="0 0 65 65">
  <defs>
    <filter id="Ellipse_126" x="0" y="0" width="65" height="65" filterUnits="userSpaceOnUse">
      <feOffset dx="3" dy="3" input="SourceAlpha"/>
      <feGaussianBlur stdDeviation="5" result="blur"/>
      <feFlood flood-opacity="0.302"/>
      <feComposite operator="in" in2="blur"/>
      <feComposite in="SourceGraphic"/>
    </filter>
  </defs>
  <g id="fleche_-30s" data-name="fleche -30s" transform="translate(58 12)">
    <g transform="matrix(1, 0, 0, 1, -58, -12)" filter="url(#Ellipse_126)">
      <circle id="Ellipse_126-2" data-name="Ellipse 126" cx="17.5" cy="17.5" r="17.5" transform="translate(12 12)" fill="#fff"/>
    </g>
    <g id="ICON_-30s" data-name="ICON -30s" transform="translate(-17.197 21.198) rotate(150)">
      <path id="Tracé_1730" data-name="Tracé 1730" d="M1.078,9.654A1.072,1.072,0,0,1,.317,7.821L3.855,4.293,1.389,1.838A1.077,1.077,0,0,1,2.912.315L6.128,3.532a1.072,1.072,0,0,1,0,1.523L1.84,9.343A1.072,1.072,0,0,1,1.078,9.654Z" transform="translate(8.571 11.79)" fill="#2d14f1"/>
      <path id="Tracé_1731" data-name="Tracé 1731" d="M8.577,17.155a8.577,8.577,0,1,1,8.577-8.578,1.072,1.072,0,1,1-2.144,0,6.433,6.433,0,1,0-6.433,6.433,1.072,1.072,0,0,1,0,2.144Z" transform="translate(0)" fill="#2d14f1"/>
    </g>
  </g>
</svg>
