<svg xmlns="http://www.w3.org/2000/svg" width="17" height="15.001" viewBox="0 0 17 15.001">
  <g id="ICON_volume_max_sound" data-name="ICON volume, max, sound" transform="translate(0 0)">
    <path id="volume_max_sound" data-name="volume, max, sound" d="M1.773,13.25H4.584l4.422,3.577a.791.791,0,0,0,.822.1.749.749,0,0,0,.445-.679V2.75a.749.749,0,0,0-.445-.68.792.792,0,0,0-.823.1L4.584,5.75H1.773A.762.762,0,0,0,1,6.5v6A.762.762,0,0,0,1.773,13.25Zm.773-6H4.864a.787.787,0,0,0,.495-.173L8.727,4.351v10.3L5.358,11.923a.787.787,0,0,0-.495-.173H2.545ZM18,9.5a.762.762,0,0,1-.773.75H14.136a.75.75,0,1,1,0-1.5h3.091A.762.762,0,0,1,18,9.5ZM16.228,4.03l-3.091,3a.789.789,0,0,1-1.093,0,.735.735,0,0,1,0-1.061l3.091-3a.789.789,0,0,1,1.093,0,.735.735,0,0,1,0,1.061Zm-3.091,7.94,3.091,3a.734.734,0,0,1,0,1.061.789.789,0,0,1-1.093,0l-3.091-3a.734.734,0,0,1,0-1.061.789.789,0,0,1,1.093,0Z" transform="translate(-1 -1.999)" fill="#2d14f1"/>
  </g>
</svg>
