<svg id="ICON_Télécharger" data-name="ICON Télécharger" xmlns="http://www.w3.org/2000/svg" width="11" height="19.331" viewBox="0 0 11 19.331">
  <g id="Layer_1" data-name="Layer 1">
    <path id="Tracé_9474" data-name="Tracé 9474" d="M4.973,16.133v.047a.731.731,0,0,0,.956,0l4.781-4.745A.714.714,0,1,0,9.7,10.43l-3.48,3.5V.712a.717.717,0,0,0-1.434,0v13.21L1.225,10.439a.711.711,0,0,0-1.013,0,.708.708,0,0,0,0,.949Z" fill="#2d14f1"/>
    <path id="Tracé_9475" data-name="Tracé 9475" d="M10.283,18.71H.717a.751.751,0,0,0,0,1.5h9.565a.751.751,0,0,0,0-1.5Z" transform="translate(0 -0.879)" fill="#2d14f1"/>
  </g>
</svg>
