<svg xmlns="http://www.w3.org/2000/svg" width="23.727" height="23.434" viewBox="0 0 23.727 23.434">
  <g id="ICON_-30s" data-name="ICON -30s" transform="translate(23.727 14.857) rotate(150)">
    <path id="Tracé_1730" data-name="Tracé 1730" d="M1.078,9.654A1.072,1.072,0,0,1,.317,7.821L3.855,4.293,1.389,1.838A1.077,1.077,0,0,1,2.912.315L6.128,3.532a1.072,1.072,0,0,1,0,1.523L1.84,9.343A1.072,1.072,0,0,1,1.078,9.654Z" transform="translate(8.571 11.79)" fill="#2d14f1"/>
    <path id="Tracé_1731" data-name="Tracé 1731" d="M8.577,17.155a8.577,8.577,0,1,1,8.577-8.578,1.072,1.072,0,1,1-2.144,0,6.433,6.433,0,1,0-6.433,6.433,1.072,1.072,0,0,1,0,2.144Z" transform="translate(0)" fill="#2d14f1"/>
  </g>
</svg>
