<svg xmlns="http://www.w3.org/2000/svg" xmlns:xlink="http://www.w3.org/1999/xlink" width="65" height="65" viewBox="0 0 65 65">
  <defs>
    <filter id="Ellipse_126" x="0" y="0" width="65" height="65" filterUnits="userSpaceOnUse">
      <feOffset dx="3" dy="3" input="SourceAlpha"/>
      <feGaussianBlur stdDeviation="5" result="blur"/>
      <feFlood flood-opacity="0.302"/>
      <feComposite operator="in" in2="blur"/>
      <feComposite in="SourceGraphic"/>
    </filter>
  </defs>
  <g id="fleche_droite" data-name="fleche droite" transform="translate(58 12)">
    <g transform="matrix(1, 0, 0, 1, -58, -12)" filter="url(#Ellipse_126)">
      <circle id="Ellipse_126-2" data-name="Ellipse 126" cx="17.5" cy="17.5" r="17.5" transform="translate(12 12)" fill="#fff"/>
    </g>
    <path id="ICON_next_continue" data-name="ICON next, continue" d="M4.009,20.229A.963.963,0,0,0,5,20.18L16.56,12.473a.963.963,0,0,0,0-1.6L5,3.162a.963.963,0,0,0-1.5.8V19.379a.963.963,0,0,0,.509.85ZM5.427,5.764l8.864,5.907L5.427,17.578ZM17.952,17.452V5.89a.963.963,0,1,1,1.927,0V17.452a.963.963,0,1,1-1.927,0Z" transform="translate(-39.791 5.945)" fill="#2d14f1"/>
  </g>
</svg>
